<svg xmlns="http://www.w3.org/2000/svg" width="5400" height="5400" viewBox="0 0 5400 5400"><defs><style>.a,.b{fill:none;stroke:#000;}.a{stroke-miterlimit:10;stroke-width:250px;}.b{stroke-width:150px;}</style></defs><title>hsmc</title><polygon class="a" points="2695.963 199.891 530.9 1449.891 530.9 3949.891 2695.963 5199.891 4861.027 3949.891 4861.027 1449.891 2695.963 199.891"/><circle class="a" cx="2700" cy="2700" r="1250"/><line class="a" x1="531" y1="1450" x2="1616" y2="2075"/><line class="a" x1="4861" y1="1450" x2="3782" y2="2074"/><line class="a" x1="2696.002" y1="5200" x2="2700.002" y2="3950"/><path class="b" d="M3540.165,2555a2064.925,2064.925,0,0,1-139,195c-48.51,60.29-97.07,114.5-144,160-53.62,51.99-107.24,97.03-162,136-52.17,37.13-101.38,66.41-152,90-58.59,27.3-109.82,43.31-157,51a537.477,537.477,0,0,1-89,7"/><path class="b" d="M1859.165,2555a2063.5,2063.5,0,0,0,139,195c48.511,60.29,97.073,114.5,144,160,53.623,51.99,107.243,97.03,162,136,52.173,37.13,101.378,66.41,152,90,58.591,27.3,109.816,43.31,157,51a537.477,537.477,0,0,0,89,7"/><rect x="1990" y="2156" width="1413" height="150"/></svg>