<svg xmlns="http://www.w3.org/2000/svg" width="2000" height="2000" viewBox="0 0 2000 2000">
  <defs>
    <style>
      .cls-1 {
        fill: #000000;
      }

      .cls-2 {
        fill: none;
        stroke: #000000;
        stroke-width: 150px;
        fill-rule: evenodd;
      }
    </style>
  </defs>
  <rect class="cls-1" x="288" y="419" width="1413" height="150"/>
  <path class="cls-2" d="M1838,843a2064.932,2064.932,0,0,1-139,195c-48.51,60.29-97.07,114.5-144,160-53.62,51.99-107.24,97.03-162,136-52.17,37.13-101.38,66.41-152,90-58.59,27.3-109.82,43.31-157,51a537.471,537.471,0,0,1-89,7"/>
  <path class="cls-2" d="M157,843a2063.484,2063.484,0,0,0,139,195c48.511,60.29,97.073,114.5,144,160,53.623,51.99,107.243,97.03,162,136,52.173,37.13,101.378,66.41,152,90,58.591,27.3,109.816,43.31,157,51a537.48,537.48,0,0,0,89,7"/>
</svg>
